<?xml version="1.0" encoding="utf-8"?>
<svg enable-background="new 0 0 1920 1000" viewBox="0 0 1920 1000" xmlns="http://www.w3.org/2000/svg" xmlns:xlink="http://www.w3.org/1999/xlink">
  <clipPath id="a">
    <path d="M -82.2 557.084 L 1920.1 557.084 L 1920.1 993.596 L -82.2 993.596 L -82.2 557.084 Z"/>
  </clipPath>
  <linearGradient id="b" gradientUnits="userSpaceOnUse" x1="570.2373" x2="1963.2894" y1="775.5947" y2="775.5947">
    <stop offset="0" stop-color="#0e2f1d"/>
    <stop offset="1" stop-color="#ADBEA7"/>
  </linearGradient>
  <linearGradient id="c" gradientUnits="userSpaceOnUse" x1="87.2861" x2="2035.2726" y1="895.3835" y2="895.3835" gradientTransform="matrix(1, 0, 0, 0.923052, 0, 55.128536)">
    <stop offset="0" stop-color="#3da46b"/>
    <stop offset="1" stop-color="#1c5d39"/>
  </linearGradient>
   <path clip-path="url(#clip-1)" d="M 581.97 854.866 C 711.17 752.566 881.57 717.866 1046.07 709.166 C 1210.67 700.466 1376.37 714.566 1540.07 695.366 C 1666.67 680.566 1790.87 645.766 1906.67 592.766 C 1923.47 585.066 1943.87 577.166 1959.47 587.166 C 1976.47 598.066 1976.17 622.666 1973.77 642.766 C 1965.77 711.166 1954.07 786.766 1900.47 829.966 C 1867.87 856.166 1825.27 865.566 1784.17 873.466 C 1499.77 927.866 1208.77 947.366 919.57 931.366 C 803.47 924.766 683.77 911.466 581.97 854.866 Z" style="stroke: rgb(255, 255, 255); fill: rgb(255, 255, 255);"/>
  <path clip-path="url(#a)" d="m570.2 870.9c129.2-102.3 299.6-137 464.1-145.7 164.6-8.7 330.3 5.4 494-13.8 126.6-14.8 250.8-49.6 366.6-102.6 16.8-7.7 37.2-15.6 52.8-5.6 17 10.9 16.7 35.5 14.3 55.6-8 68.4-19.7 144-73.3 187.2-32.6 26.2-75.2 35.6-116.3 43.5-284.4 54.4-575.4 73.9-864.6 57.9-116.1-6.6-235.8-19.9-337.6-76.5z" fill="url(#b)"/>
  <path d="M 1245.5 835.754 C 1457.7 815.538 1657.4 719.449 1870.6 716.495 C 1908 715.942 1947.8 719.08 1978 739.571 C 2026.3 772.34 2032.7 835.477 2034.8 890.768 C 2036.3 929.997 2036 973.842 2006.7 1002.364 C 1978.1 1030.148 1932 1033.379 1890.5 1034.025 C 1581.2 1039.01 1272.2 1003.287 963 1011.318 C 675.4 1018.795 363.2 1086.824 87.3 1011.687 C 162 908.767 310.5 826.431 443 806.031 C 575.5 785.632 711 799.385 844.2 815.169 C 977.4 830.862 1111.9 848.492 1245.5 835.754 Z" fill="url(#c)" clip-path="url(#a)" style=""/>
  <clipPath id="clip-1">
    <path d="M -70.43 527.766 L 1931.87 527.766 L 1931.87 1000.666 L -70.43 1000.666 L -70.43 527.766 Z"/>
  </clipPath>
</svg>